# ProBuilder 4.0.5
# https://unity3d.com/unity/features/worldbuilding/probuilder
# 2019/12/3 12:20:07

mtllib ./FLOOR_1_(1)-Merged.mtl
o FLOOR_1 (1)-Merged

g FLOOR_1 (1)-Merged
v 10.72446 9.9 10.5867
v -10.72446 9.9 10.5867
v 10.72446 20.85705 10.5867
v -10.72446 20.85705 10.5867
v -10.72446 9.9 -10.5867
v -10.72446 20.85705 -10.5867
v 10.72446 9.9 -10.5867
v 10.72446 20.85705 -10.5867
v 10.47054 20.85705 10.31307
v -10.47054 20.85705 10.31307
v 10.47054 20.85705 -10.31307
v -10.47054 20.85705 -10.31307
v 10.47054 10.44425 10.31307
v -10.47054 10.44425 10.31307
v 10.47054 10.44425 -10.31307
v -10.47054 10.44425 -10.31307
v 2.611656 9.9 -2.285857
v -2.610865 9.9 -2.285857
v 2.611656 9.9 2.285857
v -2.610865 9.9 2.285857
v 2.610865 10.44425 2.285857
v -2.610865 10.44425 2.285857
v 2.610865 10.44425 -2.285857
v -2.610865 10.44425 -2.285857
v 10.72446 20.31 10.5867
v -10.72446 20.31 10.5867
v 10.72446 31.26705 10.5867
v -10.72446 31.26705 10.5867
v -10.72446 20.31 -10.5867
v -10.72446 31.26705 -10.5867
v 10.72446 20.31 -10.5867
v 10.72446 31.26705 -10.5867
v 10.47054 31.26705 10.31307
v -10.47054 31.26705 10.31307
v 10.47054 31.26705 -10.31307
v -10.47054 31.26705 -10.31307
v 10.47054 20.85425 10.31307
v -10.47054 20.85425 10.31307
v 10.47054 20.85425 -10.31307
v -10.47054 20.85425 -10.31307
v 0.01771355 21.16651 -10.5867
v 1.946205 21.16651 -10.5867
v 0.01771355 25.37814 -10.5867
v 1.946205 25.37814 -10.5867
v 0.0131346 25.37814 -10.31307
v 1.950785 25.37814 -10.31307
v 0.0131346 21.17207 -10.31307
v 1.950785 21.17207 -10.31307
v 2.610865 20.85425 2.285857
v -2.610865 20.85425 2.285857
v 2.610865 20.85425 -2.285857
v -2.610865 20.85425 -2.285857
v 2.611656 20.31 -2.285857
v -2.610865 20.31 -2.285857
v 2.611656 20.31 2.285857
v -2.610865 20.31 2.285857
v 10.72446 -0.5 10.5867
v -10.72446 -0.5 10.5867
v 10.72446 10.45705 10.5867
v -10.72446 10.45705 10.5867
v -10.72446 -0.5 -10.5867
v -10.72446 10.45705 -10.5867
v 10.72446 -0.5 -10.5867
v 10.72446 10.45705 -10.5867
v 10.47054 0.04424858 10.31307
v -10.47054 0.04424858 10.31307
v 10.47054 0.04424858 -10.31307
v -10.47054 0.04424858 -10.31307
v 10.47054 10.45705 10.31307
v -10.47054 10.45705 10.31307
v 10.47054 10.45705 -10.31307
v -10.47054 10.45705 -10.31307

vt 10.72446 -0.5
vt -10.72446 -0.5
vt 10.72446 10.45705
vt -10.72446 10.45705
vt 10.5867 -0.5
vt -10.5867 -0.5
vt 10.5867 10.45705
vt -10.5867 10.45705
vt -10.72446 10.5867
vt 10.72446 10.5867
vt -10.47054 10.31307
vt 10.47054 10.31307
vt -10.72446 -10.5867
vt -10.47054 -10.31307
vt 10.72446 -10.5867
vt 10.47054 -10.31307
vt -10.47054 10.45705
vt 10.47054 10.45705
vt -10.47054 0.04424858
vt 10.47054 0.04424858
vt -10.31307 10.45705
vt 10.31307 10.45705
vt -10.31307 0.04424858
vt 10.31307 0.04424858
vt 2.611656 -2.285857
vt -2.610865 -2.285857
vt 2.611656 2.285857
vt -2.610865 2.285857
vt 2.610865 2.285857
vt 2.610865 -2.285857
vt 2.610865 0.04424858
vt -2.610865 0.04424858
vt 2.610865 -0.5
vt -2.611656 -0.5
vt -2.285857 -0.5037985
vt 2.285857 -0.5037985
vt -2.285857 0.04045105
vt 2.285857 0.04045105
vt -2.610865 -0.5
vt 2.611656 -0.5
vt -2.285857 -0.5
vt 2.285857 -0.5
vt -2.285857 0.04424858
vt 2.285857 0.04424858
vt 10.72446 -0.4999981
vt -10.72446 -0.4999981
vt -0.01771355 0.356514
vt -1.946205 0.356514
vt -0.01771355 4.568134
vt -1.946205 4.568134
vt 0.0131346 4.568136
vt 1.950785 4.568136
vt 0.013134 0.3620701
vt 1.950785 0.3620701
vt -0.0131346 -10.30359
vt -1.950785 -10.30359
vt -0.01771355 -10.57727
vt -1.946205 -10.57727
vt -10.27899 0.3620701
vt -10.27899 4.568136
vt -10.55265 0.3565121
vt -10.55265 4.568136
vt 1.950785 -10.31307
vt 0.0131346 -10.31307
vt 1.946205 -10.5867
vt 0.01771355 -10.5867
vt 10.31185 4.568136
vt 10.31185 0.3620701
vt 10.58551 4.568136
vt 10.58551 0.3565121
vt -2.285857 -0.4999981
vt 2.285857 -0.4999981
vt 2.611656 -0.4999981
vt -2.610865 -0.4999981
vt -2.611656 -0.4999981
vt 2.610865 -0.4999981

vn 0 0 1
vn -1 0 0
vn 0 0 -1
vn 1 0 0
vn 0 1 0
vn 0 -1 0
vn -0.9999989 -0.001454388 0
vn 0 0.9997938 -0.02030852
vn -0.99986 0 0.01673438
vn 0.99986 0 0.0167322

g FLOOR_1 (1)-Merged
usemtl ProBuilderDefault
f 3/3/1 4/4/1 2/2/1 1/1/1
f 4/7/2 6/8/2 5/6/2 2/5/2
f 6/3/3 8/4/3 7/2/3 5/1/3
f 8/7/4 3/8/4 1/6/4 7/5/4
f 9/11/5 10/12/5 4/10/5 3/9/5
f 11/14/5 9/11/5 3/9/5 8/13/5
f 10/12/5 12/16/5 6/15/5 4/10/5
f 12/16/5 11/14/5 8/13/5 6/15/5
f 13/19/3 14/20/3 10/18/3 9/17/3
f 15/23/2 13/24/2 9/22/2 11/21/2
f 14/23/4 16/24/4 12/22/4 10/21/4
f 16/19/1 15/20/1 11/18/1 12/17/1
f 17/25/6 18/26/6 5/13/6 7/15/6
f 19/27/6 17/25/6 7/15/6 1/10/6
f 18/26/6 20/28/6 2/9/6 5/13/6
f 20/28/6 19/27/6 1/10/6 2/9/6
f 21/28/5 22/29/5 14/12/5 13/11/5
f 23/26/5 21/28/5 13/11/5 15/14/5
f 22/29/5 24/30/5 16/16/5 14/12/5
f 24/30/5 23/26/5 15/14/5 16/16/5
f 19/34/3 20/33/3 22/31/3 21/32/3
f 21/38/7 23/37/7 17/35/7 19/36/7
f 23/31/1 24/32/1 18/39/1 17/40/1
f 24/44/4 22/43/4 20/41/4 18/42/4
f 27/3/1 28/4/1 26/2/1 25/1/1
f 28/7/2 30/8/2 29/6/2 26/5/2
f 32/7/4 27/8/4 25/6/4 31/5/4
f 33/11/5 34/12/5 28/10/5 27/9/5
f 35/14/5 33/11/5 27/9/5 32/13/5
f 34/12/5 36/16/5 30/15/5 28/10/5
f 36/16/5 35/14/5 32/13/5 30/15/5
f 37/19/3 38/20/3 34/18/3 33/17/3
f 39/23/2 37/24/2 33/22/2 35/21/2
f 38/23/4 40/24/4 36/22/4 34/21/4
f 41/47/3 42/48/3 31/46/3 29/45/3
f 43/49/3 41/47/3 29/1/3 30/3/3
f 42/48/3 44/50/3 32/4/3 31/2/3
f 44/50/3 43/49/3 30/3/3 32/4/3
f 45/51/1 46/52/1 35/18/1 36/17/1
f 47/53/1 45/51/1 36/17/1 40/19/1
f 46/52/1 48/54/1 39/20/1 35/18/1
f 48/54/1 47/53/1 40/19/1 39/20/1
f 42/58/8 41/57/8 47/55/8 48/56/8
f 44/62/9 42/61/9 48/59/9 46/60/9
f 43/66/6 44/65/6 46/63/6 45/64/6
f 41/70/10 43/69/10 45/67/10 47/68/10
f 49/28/5 50/29/5 38/12/5 37/11/5
f 51/26/5 49/28/5 37/11/5 39/14/5
f 50/29/5 52/30/5 40/16/5 38/12/5
f 52/30/5 51/26/5 39/14/5 40/16/5
f 53/25/6 54/26/6 29/13/6 31/15/6
f 55/27/6 53/25/6 31/15/6 25/10/6
f 54/26/6 56/28/6 26/9/6 29/13/6
f 56/28/6 55/27/6 25/10/6 26/9/6
f 52/44/4 50/43/4 56/71/4 54/72/4
f 54/74/1 53/73/1 51/31/1 52/32/1
f 50/31/3 49/32/3 55/75/3 56/76/3
f 49/38/7 51/37/7 53/35/7 55/36/7
f 59/3/1 60/4/1 58/2/1 57/1/1
f 60/7/2 62/8/2 61/6/2 58/5/2
f 62/3/3 64/4/3 63/2/3 61/1/3
f 64/7/4 59/8/4 57/6/4 63/5/4
f 67/14/5 68/16/5 66/12/5 65/11/5
f 57/10/6 58/9/6 61/13/6 63/15/6
f 69/11/5 70/12/5 60/10/5 59/9/5
f 71/14/5 69/11/5 59/9/5 64/13/5
f 70/12/5 72/16/5 62/15/5 60/10/5
f 72/16/5 71/14/5 64/13/5 62/15/5
f 65/19/3 66/20/3 70/18/3 69/17/3
f 67/23/2 65/24/2 69/22/2 71/21/2
f 66/23/4 68/24/4 72/22/4 70/21/4
f 68/19/1 67/20/1 71/18/1 72/17/1

